<svg width="13" height="12" viewBox="0 0 13 12" fill="none" xmlns="http://www.w3.org/2000/svg">
<path d="M1.79417 10.9412C1.65423 10.9692 1.53085 10.8458 1.55883 10.7058L1.95711 8.71443C1.97278 8.63611 2.06941 8.60686 2.12588 8.66333L3.83666 10.3741C3.89314 10.4306 3.86388 10.5272 3.78556 10.5429L1.79417 10.9412Z" fill="#313C56"/>
<path d="M3.12269 7.68511C3.04459 7.60701 3.04459 7.48037 3.12269 7.40227L7.28367 3.24131C7.36177 3.1632 7.4884 3.1632 7.56651 3.24131L9.2587 4.9335C9.3368 5.01161 9.3368 5.13824 9.2587 5.21634L5.09772 9.3773C5.01962 9.45541 4.89299 9.45541 4.81488 9.3773L3.12269 7.68511Z" fill="#313C56"/>
<path d="M8.55402 1.97095C8.47592 2.04905 8.47592 2.17569 8.55402 2.25379L10.2462 3.94598C10.3243 4.02409 10.4509 4.02409 10.5291 3.94598L11.3751 3.09989C11.5397 2.9353 11.6714 2.40863 10.8814 1.61861C10.0914 0.828597 9.5647 0.960266 9.40012 1.12485L8.55402 1.97095Z" fill="#313C56"/>
</svg>
